<?xml version="1.0" encoding="UTF-8"?>
<svg xmlns="http://www.w3.org/2000/svg" viewBox="0 0 1024 1024">
  <path
    fill="#72685F"
    d="M494.8608 183.5776a58.7776 58.7776 0 0 1 0 82.9696L243.6608 518.4l251.2 251.8528a58.7776 58.7776 0 0 1 0 82.9696 58.4064 58.4064 0 0 1-82.752 0L119.552 559.872a58.7776 58.7776 0 0 1 0-82.9696l292.5696-293.3376a58.4064 58.4064 0 0 1 82.752 0zM904.4608 183.5776a58.7776 58.7776 0 0 1 0 82.9696L653.2608 518.4l251.2 251.8528a58.7776 58.7776 0 0 1 0 82.9696 58.4064 58.4064 0 0 1-82.752 0L529.152 559.872a58.7776 58.7776 0 0 1 0-82.9696l292.5696-293.3376a58.4064 58.4064 0 0 1 82.752 0z"
  />
</svg>
