<?xml version="1.0" standalone="no"?>
<!DOCTYPE svg PUBLIC "-//W3C//DTD SVG 1.1//EN" "http://www.w3.org/Graphics/SVG/1.1/DTD/svg11.dtd">
<svg t="1775741963166" class="icon" viewBox="0 0 1024 1024" version="1.1" xmlns="http://www.w3.org/2000/svg" p-id="3819" xmlns:xlink="http://www.w3.org/1999/xlink" width="200" height="200">
	<path d="M512 512m-512 0a512 512 0 1 0 1024 0 512 512 0 1 0-1024 0Z" fill="#FFD3D3" p-id="3820"></path>
	<path d="M706.798933 333.141333a23.005867 23.005867 0 0 0-28.398933 0c-34.4064 26.692267-146.500267 121.890133-146.500267 224.8704 0 83.2512 72.123733 151.005867 160.836267 151.005867 45.124267 0 88.439467-17.954133 118.784-49.2544A144.930133 144.930133 0 0 0 853.333333 558.045867c0-102.912-112.162133-198.178133-146.5344-224.904534z m-47.957333 318.122667a13.824 13.824 0 0 1-12.731733 9.693867 22.596267 22.596267 0 0 1-4.232534-0.580267c-36.420267-12.049067-64-43.485867-71.748266-82.1248a13.789867 13.789867 0 0 1 10.308266-16.247467 12.458667 12.458667 0 0 1 9.693867 1.774934 13.755733 13.755733 0 0 1 6.075733 8.8064 80.384 80.384 0 0 0 53.930667 61.2352 13.482667 13.482667 0 0 1 7.850667 6.8608 14.097067 14.097067 0 0 1 0.853333 10.581333z" fill="#FF5959" p-id="3821"></path>
	<path d="M502.135467 558.011733c0-77.073067 62.907733-149.845333 108.9536-192.750933-50.619733-69.3248-114.688-122.88-142.882134-144.7936a33.518933 33.518933 0 0 0-41.3696 0c-50.107733 38.877867-213.504 177.5616-213.504 327.5776 0 121.275733 105.130667 219.9552 234.359467 219.9552 62.805333 0 123.050667-24.098133 166.912-66.013867-65.1264-19.319467-112.469333-76.561067-112.469333-143.9744z m-103.799467 125.883734a20.138667 20.138667 0 0 1-18.568533 14.1312 33.348267 33.348267 0 0 1-6.144-0.887467c-53.077333-17.5104-93.252267-63.317333-104.5504-119.569067a20.138667 20.138667 0 0 1 15.018666-23.688533 18.397867 18.397867 0 0 1 14.165334 2.628267 20.002133 20.002133 0 0 1 8.8064 12.8c8.3968 42.1888 38.5024 76.3904 78.5408 89.1904a19.6608 19.6608 0 0 1 11.502933 10.001066 20.48 20.48 0 0 1 1.2288 15.36z" fill="#FF5959" p-id="3822"></path>
</svg>
