<?xml version="1.0" standalone="no"?><!DOCTYPE svg PUBLIC "-//W3C//DTD SVG 1.1//EN" "http://www.w3.org/Graphics/SVG/1.1/DTD/svg11.dtd"><svg t="1776599814990" class="icon" viewBox="0 0 1024 1024" version="1.1" xmlns="http://www.w3.org/2000/svg" p-id="10567" xmlns:xlink="http://www.w3.org/1999/xlink" width="200" height="200"><path d="M488.7 678.4H520v99.5h-31.3z" fill="#4F3B80" p-id="10568"></path><path d="M504.4 395.3m-204.5 0a204.5 204.5 0 1 0 409 0 204.5 204.5 0 1 0-409 0Z" fill="#7AD6C8" p-id="10569"></path><path d="M504.4 190.8c112.9 0 204.5 91.5 204.5 204.5 0 112.9-91.5 204.5-204.5 204.5s-204.5-91.5-204.5-204.5c0-112.9 91.5-204.5 204.5-204.5m0-30c-31.6 0-62.4 6.2-91.3 18.4-27.9 11.8-53 28.7-74.5 50.2-21.6 21.6-38.5 46.7-50.3 74.6-12.2 28.9-18.4 59.6-18.4 91.3s6.2 62.4 18.4 91.3c11.8 27.9 28.7 53 50.2 74.5 21.5 21.5 46.6 38.4 74.5 50.2 28.9 12.2 59.6 18.4 91.3 18.4s62.4-6.2 91.3-18.4c27.9-11.8 53-28.7 74.5-50.2 21.5-21.5 38.4-46.6 50.2-74.5 12.2-28.9 18.4-59.6 18.4-91.3s-6.2-62.4-18.4-91.3c-11.8-27.9-28.7-53-50.2-74.5-21.5-21.5-46.6-38.4-74.5-50.2-28.9-12.3-59.6-18.5-91.2-18.5z" fill="#4F3B80" p-id="10570"></path><path d="M504.5 395.3m-167.1 0a167.1 167.1 0 1 0 334.2 0 167.1 167.1 0 1 0-334.2 0Z" fill="#B4EAF8" p-id="10571"></path><path d="M604.9 398l-1 1c-6.4 6.4-17 6.4-23.4 0l-74.9-74.9c-6.4-6.4-6.4-17 0-23.4l1-1c6.4-6.4 17-6.4 23.4 0l74.9 74.9c6.4 6.5 6.4 17 0 23.4zM572.5 462.6l-1 1c-6.4 6.4-17 6.4-23.4 0L446.3 361.8c-6.4-6.4-6.4-17 0-23.4l1-1c6.4-6.4 17-6.4 23.4 0l101.8 101.8c6.4 6.5 6.4 17 0 23.4z" fill="#FFFFFF" p-id="10572"></path><path d="M761.3 420.4c-2.5 26-8.9 51.3-19.1 75.4-13 30.8-31.6 58.4-55.4 82.1-23.7 23.7-51.4 42.4-82.1 55.4-31.8 13.5-65.6 20.3-100.5 20.3s-68.7-6.8-100.5-20.3c-30.8-13-58.4-31.6-82.1-55.4-23.7-23.7-42.4-51.4-55.4-82.1-10.2-24.1-16.6-49.4-19.1-75.4h-31.4c12.7 148.2 137 264.5 288.5 264.5S780 568.6 792.7 420.4h-31.4z" fill="#4F3B80" p-id="10573"></path><path d="M247.6 440.3h-30.5c-6.6 0-12-5.4-12-12V417c0-6.6 5.4-12 12-12h30.5c6.6 0 12 5.4 12 12v11.3c0 6.6-5.4 12-12 12zM788.7 440.3h-28.9c-6.6 0-12-5.4-12-12V417c0-6.6 5.4-12 12-12h28.9c6.6 0 12 5.4 12 12v11.3c0 6.6-5.4 12-12 12z" fill="#4F3B80" p-id="10574"></path><path d="M615.1 812H393.3c-20.7 0-37.6-16.9-37.6-37.6v-3.3c0-20.7 16.9-37.6 37.6-37.6h221.9c20.7 0 37.6 16.9 37.6 37.6v3.3c-0.1 20.7-17 37.6-37.7 37.6z" fill="#F75999" p-id="10575"></path><path d="M615.1 733.6c20.7 0 37.6 16.9 37.6 37.6v3.3c0 20.7-16.9 37.6-37.6 37.6H393.3c-20.7 0-37.6-16.9-37.6-37.6v-3.3c0-20.7 16.9-37.6 37.6-37.6h221.8m0-30H393.3c-37.3 0-67.6 30.3-67.6 67.6v3.3c0 37.3 30.3 67.6 67.6 67.6h221.9c37.3 0 67.6-30.3 67.6-67.6v-3.3c-0.1-37.3-30.4-67.6-67.7-67.6z" fill="#4F3B80" p-id="10576"></path><path d="M564.9 812H393.1c-20.7 0-37.6-16.9-37.6-37.6v-3.3c0-20.7 16.9-37.6 37.6-37.6h171.8c20.7 0 37.6 16.9 37.6 37.6v3.3c0 20.7-16.9 37.6-37.6 37.6z" fill="#F48BB4" p-id="10577"></path></svg>