<svg width="900" height="1600" viewBox="0 0 900 1600" fill="none" xmlns="http://www.w3.org/2000/svg">
  <rect width="900" height="1600" rx="64" fill="#FFF9F6"/>
  <rect x="32" y="32" width="836" height="1536" rx="56" fill="url(#bg)"/>
  <rect x="72" y="72" width="756" height="220" rx="40" fill="#FFFDFC" stroke="#F1E2DA"/>
  <text x="116" y="126" fill="#A98E84" font-size="28" font-family="Arial">我的模块</text>
  <rect x="656" y="96" width="120" height="44" rx="22" fill="#F7ECE6"/>
  <text x="688" y="125" fill="#7D6055" font-size="24" font-family="Arial">私有</text>
  <text x="116" y="178" fill="#2E1E18" font-size="42" font-weight="700" font-family="Arial">月经记录</text>
  <text x="116" y="232" fill="#5A433A" font-size="56" font-weight="700" font-family="Arial">距离上次开始第 27 天</text>
  <text x="116" y="272" fill="#B4988C" font-size="28" font-family="Arial">预计下次 03.19 - 03.23</text>

  <rect x="72" y="328" width="756" height="780" rx="48" fill="#FFFFFF" stroke="#F3E6DF"/>
  <text x="116" y="396" fill="#1F2140" font-size="46" font-weight="700" font-family="Arial">周期日历</text>
  <rect x="560" y="362" width="216" height="64" rx="32" fill="#F6ECE7"/>
  <rect x="568" y="370" width="102" height="48" rx="24" fill="#FFFFFF" stroke="#F0E1D8"/>
  <text x="596" y="401" fill="#8D5F52" font-size="24" font-family="Arial">周期窗</text>
  <text x="690" y="401" fill="#BDA9A0" font-size="24" font-family="Arial">月视图</text>

  <circle cx="126" cy="504" r="28" fill="#FFF2EC"/>
  <text x="118" y="514" fill="#8E6658" font-size="30" font-family="Arial">&lt;</text>
  <circle cx="774" cy="504" r="28" fill="#FFF2EC"/>
  <text x="766" y="514" fill="#8E6658" font-size="30" font-family="Arial">&gt;</text>
  <text x="418" y="476" fill="#B9A39A" font-size="28" font-family="Arial">2026</text>
  <text x="396" y="532" fill="#6A4334" font-size="62" font-weight="700" font-family="Arial">03月</text>
  <circle cx="512" cy="520" r="6" fill="#F2B8B1"/>

  <rect x="116" y="576" width="112" height="52" rx="26" fill="#FFF0F0" stroke="#FFD6D6"/>
  <text x="146" y="609" fill="#FF6D6D" font-size="24" font-family="Arial">Today</text>
  <rect x="248" y="576" width="148" height="52" rx="26" fill="#F7F8FB" stroke="#EEF0F5"/>
  <text x="280" y="609" fill="#9AA7BF" font-size="24" font-family="Arial">Last cycle</text>
  <rect x="416" y="576" width="214" height="52" rx="26" fill="#F7F8FB" stroke="#EEF0F5"/>
  <text x="456" y="609" fill="#9AA7BF" font-size="24" font-family="Arial">Next prediction</text>

  <g fill="#B89E92" font-size="22" font-family="Arial">
    <text x="130" y="704">日</text><text x="233" y="704">一</text><text x="336" y="704">二</text><text x="439" y="704">三</text><text x="542" y="704">四</text><text x="645" y="704">五</text><text x="748" y="704">六</text>
  </g>

  <rect x="116" y="810" width="206" height="64" rx="32" fill="#FDE5DE"/>
  <rect x="132" y="794" width="64" height="64" rx="24" fill="#F4A088"/>
  <rect x="206" y="794" width="64" height="64" rx="24" fill="#F4A088"/>
  <rect x="280" y="794" width="64" height="64" rx="24" fill="#F4A088"/>
  <text x="154" y="834" fill="#FFFFFF" font-size="28" font-weight="700" font-family="Arial">14</text>
  <text x="228" y="834" fill="#FFFFFF" font-size="28" font-weight="700" font-family="Arial">15</text>
  <text x="302" y="834" fill="#FFFFFF" font-size="28" font-weight="700" font-family="Arial">16</text>

  <rect x="624" y="792" width="160" height="64" rx="32" fill="#FFF7F4" stroke="#F3CFC1" stroke-dasharray="8 8"/>
  <rect x="624" y="792" width="64" height="64" rx="24" fill="#FFE6DD"/>
  <text x="650" y="834" fill="#8D5F52" font-size="28" font-weight="700" font-family="Arial">21</text>
  <circle cx="656" cy="870" r="6" fill="#8B5E52"/>

  <rect x="116" y="886" width="420" height="72" rx="36" fill="#FFF4F0" stroke="#F3D4C8" stroke-dasharray="8 8"/>
  <g fill="#8D5F52" font-size="28" font-weight="700" font-family="Arial">
    <text x="152" y="932">22</text><text x="255" y="932">23</text><text x="358" y="932">24</text><text x="461" y="932">25</text>
  </g>

  <rect x="72" y="1128" width="756" height="280" rx="40" fill="#FFFDFC" stroke="#F3E6DF"/>
  <text x="116" y="1194" fill="#B1978E" font-size="26" font-family="Arial">2026-03-21</text>
  <text x="116" y="1248" fill="#3F2D27" font-size="40" font-weight="700" font-family="Arial">当前状态：未记录</text>
  <text x="116" y="1294" fill="#8B756B" font-size="26" font-family="Arial">轻点直接编辑当天状态和属性</text>
  <rect x="116" y="1336" width="220" height="64" rx="24" fill="#3B261D"/>
  <text x="172" y="1378" fill="#FFF7F2" font-size="28" font-family="Arial">月经正常</text>
  <rect x="356" y="1336" width="136" height="64" rx="24" fill="#FFF2EC"/>
  <text x="406" y="1378" fill="#7B5A4F" font-size="28" font-family="Arial">经期</text>
  <rect x="512" y="1336" width="136" height="64" rx="24" fill="#FFF2EC"/>
  <text x="562" y="1378" fill="#7B5A4F" font-size="28" font-family="Arial">特殊</text>

  <defs>
    <linearGradient id="bg" x1="450" y1="32" x2="450" y2="1568" gradientUnits="userSpaceOnUse">
      <stop stop-color="#FFFDFC"/>
      <stop offset="1" stop-color="#FFF7F3"/>
    </linearGradient>
  </defs>
</svg>
