<?xml version="1.0" standalone="no"?><!DOCTYPE svg PUBLIC "-//W3C//DTD SVG 1.1//EN" "http://www.w3.org/Graphics/SVG/1.1/DTD/svg11.dtd"><svg t="1776331789892" class="icon" viewBox="0 0 1024 1024" version="1.1" xmlns="http://www.w3.org/2000/svg" p-id="5389" xmlns:xlink="http://www.w3.org/1999/xlink" width="200" height="200"><path d="M720.53410839 271.28996835a309.57138254 309.57138254 0 0 0-40.46366025 36.56354874 390.01119071 390.01119071 0 0 0-102.01230203 217.55311708L621.69064778 644.96944123s23.64442851-179.8926616 93.96832119-280.32054452a581.72606734 581.72606734 0 0 1 47.41073589-58.50167921z" fill="#FFFFFF" p-id="5390"></path><path d="M690.0644847 332.3510946a390.01119071 390.01119071 0 0 0-102.01230201 217.55311864L621.69064778 643.14126277c2.68132747-18.89116639 27.54454002-183.91465201 93.72456344-279.10175888a549.91577913 549.91577913 0 0 1 38.51360607-48.7513988l-23.4006723-19.0130453a329.07194175 329.07194175 0 0 0-40.46366029 36.07603481z" fill="#38EBC4" p-id="5391"></path><path d="M627.17518001 696.03653088l-60.93924895-169.53298995v-2.55944858a398.78644321 398.78644321 0 0 1 105.30302231-225.10958397 317.85912111 317.85912111 0 0 1 42.04808096-37.29482042l7.55646689-5.72828844 59.96422105 48.75139885-8.65337363 9.62839994a592.93888956 592.93888956 0 0 0-46.43570803 57.28289516C658.25419651 468.36749835 633.87849789 644.84756234 633.87849789 646.0663464z m-36.56354874-172.82370866L617.3030223 597.31494757c12.1878501-60.93924893 38.51360449-168.80171826 88.24003121-240.34439659a593.30452461 593.30452461 0 0 1 39.85426903-50.21394064l-25.10697034-20.10995206a282.8799915 282.8799915 0 0 0-31.32277426 28.88520454 382.21096765 382.21096765 0 0 0-98.59970444 207.6809594z" fill="#352635" p-id="5392"></path><path d="M731.38129556 321.86954406c65.32687441 62.76742582 151.9824865 1.95005577 195.00559533-48.02012712a965.76521186 965.76521186 0 0 1 78.00223846-82.26798664 22.66940062 22.66940062 0 0 0-4.50950435-36.56354872c-36.56354874-18.89116639-102.74357372-46.19195026-175.74879387-39.85426901-95.67462079 8.28773857-153.93254227 102.86545103-118.7096565 172.70183133z m268.13269281-167.21729754" fill="#75BC3B" p-id="5393"></path><path d="M794.39247756 360.87066407a101.40290922 101.40290922 0 0 1-72.0301907-30.10399018l-1.21878564-1.46254183-27.17890499-36.56354873a118.22214254 118.22214254 0 0 1 5.11889719-112.1282175 155.15132633 155.15132633 0 0 1 123.34103969-78.12411575c77.27096677-6.70331787 147.47298215 22.91315679 182.81774525 41.19493197a34.61349297 34.61349297 0 0 1 7.06895294 56.67350077 993.55350964 993.55350964 0 0 0-76.90533169 81.17107829c-31.44465156 36.56354874-83.60864956 76.53969663-135.40701094 78.97726632z m-54.47968726-47.04510082a77.88035958 77.88035958 0 0 0 58.50167765 22.54752174c44.12001559-2.07193465 89.94633081-37.78233436 118.10026369-70.44577157a1031.21396514 1031.21396514 0 0 1 78.97726632-82.99925517 10.11591545 10.11591545 0 0 0 3.53447646-9.26276645 9.87215772 9.87215772 0 0 0-5.48453222-7.80022463c-32.54155833-17.06298951-97.50279766-44.60752954-169.04547601-38.5136045a131.14126277 131.14126277 0 0 0-104.08423669 65.32687441 94.21207897 94.21207897 0 0 0-5.11889558 88.36191008z" fill="#352635" p-id="5394"></path><path d="M879.21991277 929.43385343c0 26.81326991-125.53485165 48.75139885-280.3205445 48.75139883s-280.32054292-21.93812893-280.3205429-48.75139883 125.53485165-48.75139885 280.3205429-48.75139885 280.32054292 21.81625162 280.3205445 48.75139885z m0 0" fill="#EE7725" p-id="5395"></path><path d="M598.89936827 990.37310079c-29.98210974 0-292.50839303-1.70629958-292.50839303-60.93924736s262.52628329-60.93924893 292.50839303-60.93924896 292.50839303 1.70629958 292.50839302 60.93924896-262.52628329 60.93924893-292.50839302 60.93924736z m-267.52330156-60.93924736c12.1878501 13.65039191 106.88744143 36.56354874 267.52330156 36.56354874s255.9448443-22.91315679 268.13269439-36.56354874c-12.1878501-13.77227081-106.88744143-36.56354874-268.13269439-36.56355032s-255.70108653 22.79127951-267.52330156 36.56355032z" fill="#352635" p-id="5396"></path><path d="M578.05814611 475.43645126c-42.4137176-87.75251727-115.66269395-154.66381239-182.81774681-204.02460405l-22.18188669 34.85724917c47.89824986 46.5575853 102.37793708 104.20611554 130.89750658 192.32426945C583.42079947 743.56914407 548.56354874 843.02199909 530.28177515 883.48565935a24.3757002 24.3757002 0 0 0 13.28475529 32.29780215 138.69772963 138.69772963 0 0 0 57.0391374 13.52851304c53.13902431 1.70629958 56.67350078-28.39769059 56.67350079-28.3976906A832.55201445 832.55201445 0 0 0 578.05814611 475.43645126z m0 0" fill="#FFFFFF" p-id="5397"></path><path d="M377.9336536 298.34699442l-5.11889718 7.92210196c47.89824986 46.5575853 102.37793708 104.20611554 130.89750501 192.32426945C583.42079947 743.56914407 548.56354874 843.02199909 530.28177515 883.48565935a24.3757002 24.3757002 0 0 0 13.28475529 32.29780215 138.69772963 138.69772963 0 0 0 57.0391374 13.52851304 79.46478028 79.46478028 0 0 0 36.56354874-5.97204617 835.23334193 835.23334193 0 0 0-79.58665915-422.91838564c-41.43868973-86.65561209-113.34700311-152.8356355-179.64890383-202.07454831z" fill="#38EBC4" p-id="5398"></path><path d="M604.99329331 941.62170196h-4.87513941a152.22624269 152.22624269 0 0 1-61.9142768-15.23481107 36.56354874 36.56354874 0 0 1-19.01304529-48.75139884c13.52851305-30.83526032 54.96720276-124.68170265-26.81326991-376.23892145-27.66641891-85.31494757-80.43980815-141.3790571-127.85054405-187.3272496l-7.06895293-6.94707405 34.73537185-54.35780994 10.48155054 7.67834417c89.45881685 66.05814611 150.39806579 134.0663464 186.35222326 208.65598728A836.3302471 836.3302471 0 0 1 669.34513986 902.01119071c-0.12187888 2.07193465-5.24077605 39.61051126-64.35184655 39.61051125zM388.65896031 304.80655455c47.53261322 46.80134308 98.96533948 104.32799284 126.87551615 190.37421212 84.70555632 260.5762275 40.46366183 360.27283714 25.96011934 393.18003208a12.1878501 12.1878501 0 0 0 7.06895294 16.45359828 126.87551617 126.87551617 0 0 0 52.0421191 12.18784854c40.21990407 1.09690677 44.12001559-17.18486838 44.2418945-17.91613853a827.55499616 827.55499616 0 0 0-78.12411732-418.5307586c-32.78531607-67.76444412-87.87439616-130.65374883-168.43608319-191.83675552z" fill="#352635" p-id="5399"></path><path d="M316.99440466 387.44017623c-65.32687441 0-138.57585076-51.92024025-182.81774526-129.19120699a789.77266178 789.77266178 0 0 0-106.76556414-146.25419651 9.75028039 9.75028039 0 0 1-2.43756968-8.77525252 10.6034294 10.6034294 0 0 1 6.09392505-7.67834575 434.61872182 434.61872182 0 0 1 170.62989513-37.78233281 322.61238164 322.61238164 0 0 1 121.8784979 23.27879189c123.82855365 50.57957571 120.65971222 169.28923218 112.98136647 219.38129555l-12.18785011 28.27581172c-29.86023243 38.63548337-66.05814611 58.25792149-107.49683424 58.25792148z" fill="#75BC3B" p-id="5400"></path><path d="M201.45358958 70.19044795a308.23071959 308.23071959 0 0 1 117.12523579 22.42564287c114.68766606 46.80134308 112.85948917 156.61386815 105.79053465 204.87775462l-10.96906446 25.35072651c-27.17890497 34.73537185-59.84234218 52.40775418-96.89340484 52.40775416-60.93924893 0-130.04435599-49.36079167-171.60492459-122.97540304a788.43199885 788.43199885 0 0 0-106.52180638-146.25419653 418.40888131 418.40888131 0 0 1 163.07342983-35.83227859m0-24.37570021a443.39397277 443.39397277 0 0 0-175.26127995 38.87924115 22.42564286 22.42564286 0 0 0-7.55646686 35.8322786 771.97840058 771.97840058 0 0 1 105.05926454 143.69474791C167.44948786 341.37010327 243.01415661 399.62802635 316.99440466 399.62802635c42.16995984 0 83.60864956-19.01304528 118.10026365-64.35184654l12.91912022-30.46962526c7.55646687-48.75139885 14.50354093-179.16139148-120.17219829-234.12859266a332.48454091 332.48454091 0 0 0-126.38800066-24.37570019z" fill="#352635" p-id="5401"></path><path d="M422.90681821 326.98844124c-104.5717506-134.0663464-259.72307693-181.35520342-302.25867342-192.32426789a12.1878501 12.1878501 0 0 1-8.77525094-14.13790586 12.1878501 12.1878501 0 0 1 14.74729868-9.50652265c45.7044363 11.45657841 205.12151082 59.72046331 315.54342872 201.0995204z" fill="#352635" p-id="5402"></path><path d="M348.19530004 248.01117489L315.16622777 146.36450795a12.1878501 12.1878501 0 0 1 7.80022307-15.35668993 12.1878501 12.1878501 0 0 1 15.35668992 7.80022305l33.02907384 101.8904247zM141.48936852 190.36264623a12.1878501 12.1878501 0 0 1 11.09094335-13.16287798l112.12821747-9.38464377 2.07193465 24.37569865-112.12821747 9.50652263a12.1878501 12.1878501 0 0 1-13.162878-11.33469953zM728.69996807 315.53186282l-17.91613851-16.45359669c3.29071871-3.65635535 81.7804711-87.75251727 242.17257349-132.84756234a11.33469953 11.33469953 0 0 1 14.01602698 8.04398081v1.70629801a11.45657841 11.45657841 0 0 1-7.92210193 13.7722708c-152.8356355 43.14498772-229.49721101 124.92546041-230.35036003 125.77860941z" fill="#352635" p-id="5403"></path><path d="M793.7830863 258.00521148l-24.37570019-4.02199041c0-2.07193465 9.38464377-48.75139885 18.15989626-79.09914365a11.33469953 11.33469953 0 0 1 14.62541982-7.43458956l1.5844207 0.60939281a11.33469953 11.33469953 0 0 1 7.19083024 13.89414812c-8.16585969 28.88520455-17.18486838 75.44278987-17.18486683 76.05218269zM920.04920811 229.24188581l-74.95527593 2.43757127v-24.37570021h74.71151973a11.33469953 11.33469953 0 0 1 11.33469952 10.23779434 11.45657841 11.45657841 0 0 1-11.09094332 11.7003346z" fill="#352635" p-id="5404"></path></svg>