<?xml version="1.0" standalone="no"?><!DOCTYPE svg PUBLIC "-//W3C//DTD SVG 1.1//EN" "http://www.w3.org/Graphics/SVG/1.1/DTD/svg11.dtd"><svg t="1774727517054" class="icon" viewBox="0 0 1024 1024" version="1.1" xmlns="http://www.w3.org/2000/svg" p-id="8277" xmlns:xlink="http://www.w3.org/1999/xlink" width="200" height="200"><path d="M512 810.666667a232.96 232.96 0 0 1-164.693333-397.44L512 248.746667l164.693333 164.48A232.96 232.96 0 0 1 512 810.666667m0 85.333333a318.08 318.08 0 0 0 224.853333-543.146667L512 128 287.146667 352.853333A318.08 318.08 0 0 0 512 896z m0-234.666667v85.333334a170.666667 170.666667 0 0 0 170.666667-170.666667h-85.333334a85.333333 85.333333 0 0 1-85.333333 85.333333z" p-id="8278"></path></svg>