<?xml version="1.0" standalone="no"?><!DOCTYPE svg PUBLIC "-//W3C//DTD SVG 1.1//EN" "http://www.w3.org/Graphics/SVG/1.1/DTD/svg11.dtd"><svg t="1775262225366" class="icon" viewBox="0 0 1024 1024" version="1.1" xmlns="http://www.w3.org/2000/svg" p-id="5625" xmlns:xlink="http://www.w3.org/1999/xlink" width="200" height="200"><path d="M494.8608 183.5776a58.7776 58.7776 0 0 1 0 82.9696L243.6608 518.4l251.2 251.8528a58.7776 58.7776 0 0 1 0 82.9696 58.4064 58.4064 0 0 1-82.752 0L119.552 559.872a58.7776 58.7776 0 0 1 0-82.9696l292.5696-293.3376a58.4064 58.4064 0 0 1 82.752 0z m409.6 0a58.7776 58.7776 0 0 1 0 82.9696L653.2608 518.4l251.2 251.8528a58.7776 58.7776 0 0 1 0 82.9696 58.4064 58.4064 0 0 1-82.752 0L529.152 559.872a58.7776 58.7776 0 0 1 0-82.9696l292.5696-293.3376a58.4064 58.4064 0 0 1 82.752 0z" fill="#000000" p-id="5626"></path></svg>