<?xml version="1.0" standalone="no"?><!DOCTYPE svg PUBLIC "-//W3C//DTD SVG 1.1//EN" "http://www.w3.org/Graphics/SVG/1.1/DTD/svg11.dtd"><svg t="1776599677227" class="icon" viewBox="0 0 1024 1024" version="1.1" xmlns="http://www.w3.org/2000/svg" p-id="6667" xmlns:xlink="http://www.w3.org/1999/xlink" width="200" height="200"><path d="M1024 512c0 282.76736-229.23264 512-512 512S0 794.76736 0 512z" fill="#EFEFEF" p-id="6668"></path><path d="M0 512C0 229.23264 229.23264 0 512 0s512 229.23264 512 512z" fill="#e8513d" p-id="6669" data-spm-anchor-id="a313x.search_index.0.i8.7c823a81EskWAI" class="selected"></path><path d="M0 460.8m30.72 0l962.56 0q30.72 0 30.72 30.72l0 40.96q0 30.72-30.72 30.72l-962.56 0q-30.72 0-30.72-30.72l0-40.96q0-30.72 30.72-30.72Z" fill="#333333" p-id="6670"></path><path d="M512 512m-201.95328 0a201.95328 201.95328 0 1 0 403.90656 0 201.95328 201.95328 0 1 0-403.90656 0Z" fill="#D2D2D2" p-id="6671"></path><path d="M512 729.31328C392.192 729.31328 294.68672 631.808 294.68672 512S392.192 294.68672 512 294.68672 729.31328 392.192 729.31328 512 631.808 729.31328 512 729.31328z m0-403.90656c-102.89152 0-186.59328 83.70176-186.59328 186.59328S409.10848 698.59328 512 698.59328 698.59328 614.89152 698.59328 512 614.89152 325.40672 512 325.40672z" fill="#4D4D4D" p-id="6672"></path><path d="M512 512m-164.352 0a164.352 164.352 0 1 0 328.704 0 164.352 164.352 0 1 0-328.704 0Z" fill="#EFEFEF" p-id="6673"></path><path d="M512 512m-142.73536 0a142.73536 142.73536 0 1 0 285.47072 0 142.73536 142.73536 0 1 0-285.47072 0Z" fill="#FCFCFC" p-id="6674"></path></svg>