<?xml version="1.0" standalone="no"?><!DOCTYPE svg PUBLIC "-//W3C//DTD SVG 1.1//EN" "http://www.w3.org/Graphics/SVG/1.1/DTD/svg11.dtd"><svg t="1776605321188" class="icon" viewBox="0 0 1024 1024" version="1.1" xmlns="http://www.w3.org/2000/svg" p-id="13843" xmlns:xlink="http://www.w3.org/1999/xlink" width="200" height="200"><path d="M205.7472 532.352a102.4 102.4 0 0 1 102.4-102.4h406.1184a102.4 102.4 0 0 1 102.4 102.4v191.3856a102.4 102.4 0 0 1-102.4 102.4H308.1472a102.4 102.4 0 0 1-102.4-102.4v-191.3856z" fill="#F4A564" p-id="13844"></path><path d="M763.904 177.152h-90.9824V113.8176a28.4928 28.4928 0 0 0-56.9856 0V177.152h-207.872V113.8176a28.4928 28.4928 0 0 0-57.0112 0V177.152H260.096a142.5152 142.5152 0 0 0-142.336 142.336v476.8256a142.5152 142.5152 0 0 0 142.336 142.336h503.808a142.4896 142.4896 0 0 0 142.336-142.336V319.488a142.5152 142.5152 0 0 0-142.336-142.336zM260.096 233.984h90.9568c0 0.6656 2.9952 8.4736 8.3456 13.824a28.4928 28.4928 0 0 0 40.32 0c5.3248-5.3504 8.5248-13.1584 8.3456-13.824h207.872s2.9952 8.4736 8.3456 13.824a28.4928 28.4928 0 0 0 40.2944 0c5.3504-5.3504 8.5248-13.1584 8.3456-13.824h90.9824a85.3248 85.3248 0 0 1 85.3248 85.3248v0.8448H174.7456v-0.6656a85.3504 85.3504 0 0 1 85.3504-85.504z m503.808 647.68H260.096a85.2992 85.2992 0 0 1-85.3504-85.3504V378.1888h674.4832v418.1248a85.3504 85.3504 0 0 1-85.3248 85.3504z" fill="#4D4D4D" p-id="13845"></path></svg>