<svg viewBox="0 0 1024 1024" xmlns="http://www.w3.org/2000/svg">
  <path d="M495.84 14.24c2.816-6.272 10.368-5.056 15.904-4.928 68.704 2.944 137.312 7.904 206.016 10.784 28.96 3.488 58.464 1.024 87.232 6.144l0.128 2.976c-82.592 80.352-163.36 162.56-245.088 243.872-3.136 3.552-7.552 6.464-8.864 11.296 6.88 4.128 15.232 4.064 22.816 6.112 50.656 11.648 101.504 22.72 152.128 34.56l1.632 2.976c-7.264 10.144-17.856 17.632-26.336 26.816-83.072 82.496-165.728 165.408-248.576 248.064-3.456 3.584-7.424 6.912-9.536 11.52 3.072 4.576 9.056 5.216 13.696 7.424 27.488 10.88 54.912 21.984 82.336 32.992 5.376 2.304 11.072 4.16 15.648 7.936-3.072 5.536-8.672 8.992-12.8 13.632-101.024 101.664-200.896 204.512-302.592 305.504-6.88 5.76-11.168 18.176-21.184 17.952-0.352-6.304 3.744-11.648 5.856-17.28 34.4-77.76 69.12-155.328 103.904-232.928l-0.672-2.656c-37.44-15.232-75.136-29.92-112.352-45.696 0.032-4.736 3.936-8.192 6.08-12.096 49.824-74.592 99.84-149.056 150.016-223.424 2.08-3.968 6.848-8.224 4.416-13.12-51.328-9.792-102.08-22.816-153.184-33.792l-1.632-2.944c1.664-3.84 3.744-7.456 6.144-10.848C316.704 274.816 405.92 144.224 495.808 14.144z" fill="#9840A8"/>
</svg>
